<?xml version="1.0" encoding="utf-8"?>
<!-- Generator: Adobe Illustrator 16.0.0, SVG Export Plug-In . SVG Version: 6.00 Build 0)  -->
<!DOCTYPE svg PUBLIC "-//W3C//DTD SVG 1.1//EN" "http://www.w3.org/Graphics/SVG/1.1/DTD/svg11.dtd">
<svg version="1.1" id="Layer_1" xmlns="http://www.w3.org/2000/svg" xmlns:xlink="http://www.w3.org/1999/xlink" x="0px" y="0px"
	 width="400px" height="400px" viewBox="-12 -5 400 400" enable-background="new -12 -5 400 400" xml:space="preserve">
<g>
	<g>
		<defs>
			<rect id="SVGID_1_" x="-12" y="-9.229" width="1542.139" height="410.208"/>
		</defs>
		<clipPath id="SVGID_2_">
			<use xlink:href="#SVGID_1_"  overflow="visible"/>
		</clipPath>
		<path clip-path="url(#SVGID_2_)" fill="#B3B3B3" d="M608.846,519.894v-16.868c-65.635-17.176-131.621-2.496-126.057,79.744
			c4.99,70.979,67.17,83.734,126.057,65.637V582.77h-20.549v53.675c-38.953,9.202-83.119-2.208-85.572-53.675
			C499.408,509.844,551.49,504.866,608.846,519.894"/>
	</g>
	<g>
		<defs>
			<rect id="SVGID_3_" x="-12" y="-9.229" width="1542.139" height="410.208"/>
		</defs>
		<clipPath id="SVGID_4_">
			<use xlink:href="#SVGID_3_"  overflow="visible"/>
		</clipPath>
		<path clip-path="url(#SVGID_4_)" fill="#B3B3B3" d="M750.535,497.422v103.767c-2.227,24.796-17.914,38.145-44.496,38.147
			c-26.582-0.003-42.271-13.352-44.496-38.147V497.422h-20.461v103.767c4.152,44.127,27.039,54.274,56.654,54.9v0.001
			c36.318,2.021,68.461-3.896,73.26-54.901V497.422H750.535z"/>
	</g>
	<g>
		<defs>
			<rect id="SVGID_5_" x="-12" y="-9.229" width="1542.139" height="410.208"/>
		</defs>
		<clipPath id="SVGID_6_">
			<use xlink:href="#SVGID_5_"  overflow="visible"/>
		</clipPath>
		<polygon clip-path="url(#SVGID_6_)" fill="#B3B3B3" points="828.381,638.001 828.381,497.422 808.309,497.422 808.309,654.719 
			910.932,654.719 910.932,638.001 		"/>
	</g>
	<g>
		<defs>
			<rect id="SVGID_7_" x="-12" y="-9.229" width="1542.139" height="410.208"/>
		</defs>
		<clipPath id="SVGID_8_">
			<use xlink:href="#SVGID_7_"  overflow="visible"/>
		</clipPath>
		<polygon clip-path="url(#SVGID_8_)" fill="#B3B3B3" points="997.154,476.857 919.695,654.719 940.91,654.719 997.154,517.119 
			1026.375,588.606 985.98,588.606 980.242,604.651 1032.934,604.651 1053.4,654.719 1074.613,654.719 		"/>
	</g>
	<g>
		<defs>
			<rect id="SVGID_9_" x="-12" y="-9.229" width="1542.139" height="410.208"/>
		</defs>
		<clipPath id="SVGID_10_">
			<use xlink:href="#SVGID_9_"  overflow="visible"/>
		</clipPath>
		<path clip-path="url(#SVGID_10_)" fill="#B3B3B3" d="M1164.479,580.339c28.811-9.277,43.9-23.483,43.789-45.73
			c-0.246-26.547-16.348-37.709-44.496-37.187h-67.447v16.706V654.72h21.01V514.127h46.438c17.834,1.235,22.424,9.357,22.424,21.541
			c0,15.138-7.721,24.236-24.125,30.064c-6.27,2.108-13.006,3.834-20.371,5.072v12.89l49.969,71.024h27.191L1164.479,580.339z"/>
	</g>
	<g>
		<defs>
			<rect id="SVGID_11_" x="-12" y="-9.229" width="1542.139" height="410.208"/>
		</defs>
		<clipPath id="SVGID_12_">
			<use xlink:href="#SVGID_11_"  overflow="visible"/>
		</clipPath>
		<path clip-path="url(#SVGID_12_)" fill="#B3B3B3" d="M1241.191,637.625v17.095c32.344-0.929,54.336-12.213,53.453-46.378v-110.92
			h-20.439v113.404C1275.17,627.403,1263.291,637.114,1241.191,637.625"/>
	</g>
	<g>
		<defs>
			<rect id="SVGID_13_" x="-12" y="-9.229" width="1542.139" height="410.208"/>
		</defs>
		<clipPath id="SVGID_14_">
			<use xlink:href="#SVGID_13_"  overflow="visible"/>
		</clipPath>
		<path clip-path="url(#SVGID_14_)" fill="#B3B3B3" d="M1439.793,502.618v18.655c-47.447-15.619-93.951-9.983-94.119,18.927
			c0.529,20.772,10.711,27.244,45.633,25.929c39.609-1.668,54.148,15.96,53.672,45.117c-1.043,45.465-45.943,52.094-113.824,37.747
			v-19.078c42.906,12.858,94.357,15.571,93.08-18.413c0.172-20.73-8.295-29.037-46.928-27.223
			c-35.205-0.5-53.477-14.596-51.6-44.856C1329.025,495.748,1372.15,487.329,1439.793,502.618"/>
	</g>
	<g>
		<defs>
			<rect id="SVGID_15_" x="-12" y="-9.229" width="1542.139" height="410.208"/>
		</defs>
		<clipPath id="SVGID_16_">
			<use xlink:href="#SVGID_15_"  overflow="visible"/>
		</clipPath>
		<polygon clip-path="url(#SVGID_16_)" fill="#B3B3B3" points="-3.498,64.591 180.592,0.222 365.617,64.591 336.387,304.346 
			181.06,390.171 25.421,304.346 		"/>
	</g>
	<g>
		<defs>
			<rect id="SVGID_17_" x="-12" y="-9.229" width="1542.139" height="410.208"/>
		</defs>
		<clipPath id="SVGID_18_">
			<use xlink:href="#SVGID_17_"  overflow="visible"/>
		</clipPath>
		<polygon clip-path="url(#SVGID_18_)" fill="#A5120D" points="180.609,20.212 180.609,368.889 318.818,292.487 345.037,77.417 		
			"/>
	</g>
	<g>
		<defs>
			<rect id="SVGID_19_" x="-12" y="-9.229" width="1542.139" height="410.208"/>
		</defs>
		<clipPath id="SVGID_20_">
			<use xlink:href="#SVGID_19_"  overflow="visible"/>
		</clipPath>
		<polygon clip-path="url(#SVGID_20_)" fill="#DC1B16" points="180.609,20.212 180.609,368.889 42.401,292.487 16.179,77.417 		"/>
	</g>
	<g>
		<defs>
			<rect id="SVGID_21_" x="-12" y="-9.229" width="1542.139" height="410.208"/>
		</defs>
		<clipPath id="SVGID_22_">
			<use xlink:href="#SVGID_21_"  overflow="visible"/>
		</clipPath>
		<path clip-path="url(#SVGID_22_)" fill="#FFFFFF" d="M180.647,38.001L180.647,38.001L180.647,38.001L180.647,38.001
			L180.647,38.001L67.514,289.214h41.56l23.865-56.675h95.415l23.863,56.675h41.561L180.647,38.001z M147.286,198.467l33.361-79.228
			l33.361,79.228C161.244,198.588,175.938,198.594,147.286,198.467"/>
	</g>
	<g>
		<defs>
			<rect id="SVGID_23_" x="-12" y="-9.229" width="1542.139" height="410.208"/>
		</defs>
		<clipPath id="SVGID_24_">
			<use xlink:href="#SVGID_23_"  overflow="visible"/>
		</clipPath>
		<path clip-path="url(#SVGID_24_)" fill="#B3B2B2" d="M180.647,38.001L180.647,38.001v81.239l33.361,79.229
			c-16.723,0.037-26.663,0.063-33.361,0.078v33.993h47.708l23.863,56.675h41.559L180.647,38.001z"/>
	</g>
	<g>
		<defs>
			<rect id="SVGID_25_" x="-12" y="-9.229" width="1542.139" height="410.208"/>
		</defs>
		<clipPath id="SVGID_26_">
			<use xlink:href="#SVGID_25_"  overflow="visible"/>
		</clipPath>
		<path clip-path="url(#SVGID_26_)" fill="#020202" d="M613.553,514.588v-16.869c-65.635-17.176-131.621-2.497-126.057,79.745
			c4.99,70.979,67.17,83.731,126.057,65.637v-65.637h-20.549v53.676c-38.953,9.2-83.117-2.21-85.57-53.676
			C504.115,504.535,556.201,499.559,613.553,514.588"/>
	</g>
	<g>
		<defs>
			<rect id="SVGID_27_" x="-12" y="-9.229" width="1542.139" height="410.208"/>
		</defs>
		<clipPath id="SVGID_28_">
			<use xlink:href="#SVGID_27_"  overflow="visible"/>
		</clipPath>
		<path clip-path="url(#SVGID_28_)" fill="#020202" d="M755.242,492.114v103.768c-2.225,24.797-17.914,38.146-44.496,38.147
			c-26.582-0.002-42.271-13.351-44.496-38.147V492.114h-20.463v103.768c4.154,44.127,27.041,54.272,56.656,54.902v0.001
			c36.318,2.02,68.459-3.897,73.26-54.903V492.114H755.242L755.242,492.114z"/>
	</g>
	<g>
		<defs>
			<rect id="SVGID_29_" x="-12" y="-9.229" width="1542.139" height="410.208"/>
		</defs>
		<clipPath id="SVGID_30_">
			<use xlink:href="#SVGID_29_"  overflow="visible"/>
		</clipPath>
		<polygon clip-path="url(#SVGID_30_)" fill="#020202" points="833.088,632.693 833.088,492.114 813.016,492.114 813.016,649.412 
			915.639,649.412 915.639,632.693 		"/>
	</g>
	<g>
		<defs>
			<rect id="SVGID_31_" x="-12" y="-9.229" width="1542.139" height="410.208"/>
		</defs>
		<clipPath id="SVGID_32_">
			<use xlink:href="#SVGID_31_"  overflow="visible"/>
		</clipPath>
		<polygon clip-path="url(#SVGID_32_)" fill="#020202" points="1001.861,471.55 924.402,649.412 945.617,649.412 1001.861,511.813 
			1031.082,583.299 990.689,583.299 984.951,599.345 1037.641,599.345 1058.107,649.412 1079.322,649.412 		"/>
	</g>
	<g>
		<defs>
			<rect id="SVGID_33_" x="-12" y="-9.229" width="1542.139" height="410.208"/>
		</defs>
		<clipPath id="SVGID_34_">
			<use xlink:href="#SVGID_33_"  overflow="visible"/>
		</clipPath>
		<path clip-path="url(#SVGID_34_)" fill="#020202" d="M1169.186,575.032c28.811-9.276,43.902-23.483,43.789-45.73
			c-0.244-26.547-16.348-37.709-44.496-37.188h-67.447v16.707v140.592h21.012V508.82h46.436c17.834,1.236,22.426,9.356,22.426,21.54
			c0,15.139-7.723,24.237-24.127,30.066c-6.271,2.107-13.004,3.833-20.369,5.071v12.89l49.967,71.025h27.193L1169.186,575.032z"/>
	</g>
	<g>
		<defs>
			<rect id="SVGID_35_" x="-12" y="-9.229" width="1542.139" height="410.208"/>
		</defs>
		<clipPath id="SVGID_36_">
			<use xlink:href="#SVGID_35_"  overflow="visible"/>
		</clipPath>
		<path clip-path="url(#SVGID_36_)" fill="#A5120D" d="M1245.898,632.317v17.095c32.344-0.928,54.336-12.211,53.453-46.377V492.114
			h-20.441v113.406C1279.877,622.095,1267.998,631.807,1245.898,632.317"/>
	</g>
	<g>
		<defs>
			<rect id="SVGID_37_" x="-12" y="-9.229" width="1542.139" height="410.208"/>
		</defs>
		<clipPath id="SVGID_38_">
			<use xlink:href="#SVGID_37_"  overflow="visible"/>
		</clipPath>
		<path clip-path="url(#SVGID_38_)" fill="#A5120D" d="M1444.5,497.312v18.655c-47.449-15.618-93.953-9.982-94.121,18.927
			c0.531,20.771,10.713,27.242,45.635,25.929c39.609-1.67,54.148,15.96,53.672,45.116c-1.045,45.465-45.943,52.094-113.826,37.746
			v-19.079c42.906,12.86,94.359,15.574,93.084-18.41c0.17-20.73-8.297-29.037-46.932-27.222
			c-35.205-0.502-53.473-14.597-51.598-44.856C1333.732,490.442,1376.857,482.022,1444.5,497.312"/>
	</g>
	<g>
		<defs>
			<rect id="SVGID_39_" x="-12" y="-9.229" width="1542.139" height="410.208"/>
		</defs>
		<clipPath id="SVGID_40_">
			<use xlink:href="#SVGID_39_"  overflow="visible"/>
		</clipPath>
		<path clip-path="url(#SVGID_40_)" fill="#00000D" d="M1122.041,709.441c-4.842,0-7.945,1.885-9.787,4.828v-14.46h-4.461v38.026
			h4.461v-4.059c1.822,3.204,4.906,5.346,9.787,5.176c5.838-0.202,10.596-6.795,10.596-14.552
			C1132.637,715.729,1127.893,709.441,1122.041,709.441 M1120.773,734.927c-4.461,0-8.52-2.161-8.52-10.725
			c0-7.357,3.145-10.727,8.52-10.727c4.867,0,6.895,4.802,6.895,10.727C1127.666,730.125,1125.436,734.927,1120.773,734.927"/>
	</g>
	<g>
		<defs>
			<rect id="SVGID_41_" x="-12" y="-9.229" width="1542.139" height="410.208"/>
		</defs>
		<clipPath id="SVGID_42_">
			<use xlink:href="#SVGID_41_"  overflow="visible"/>
		</clipPath>
		<path clip-path="url(#SVGID_42_)" fill="#00000D" d="M1154.459,710.777l-7.193,22.203l-7.443-22.203h-5.643
			c0,0,9.992,27.696,10.455,28.994c-0.248,0.963-0.475,1.394-1.152,3.193c-1.285,3.426-2.904,3.927-6.389,2.544v4.465
			c5.043,0.823,7.785,0.433,10.049-5.458c1.068-2.785,12.963-33.739,12.963-33.739L1154.459,710.777L1154.459,710.777z"/>
	</g>
	<g>
		<defs>
			<rect id="SVGID_43_" x="-12" y="-9.229" width="1542.139" height="410.208"/>
		</defs>
		<clipPath id="SVGID_44_">
			<use xlink:href="#SVGID_43_"  overflow="visible"/>
		</clipPath>
		<path clip-path="url(#SVGID_44_)" d="M1243.209,703.673h-30.697v9.03h21.848c-1.066,12.665-11.604,18.065-21.547,18.065
			c-12.725,0-23.826-10.012-23.826-24.043c0-13.669,10.582-24.196,23.854-24.196c10.238,0,16.271,6.526,16.271,6.526l6.324-6.548
			c0,0-8.117-9.038-22.918-9.038c-18.85,0-33.432,15.91-33.432,33.094c0,16.838,13.717,33.256,33.912,33.256
			c17.762,0,30.764-12.165,30.764-30.159c0-3.795-0.551-5.989-0.551-5.989v0.002H1243.209z"/>
	</g>
	<g>
		<defs>
			<rect id="SVGID_45_" x="-12" y="-9.229" width="1542.139" height="410.208"/>
		</defs>
		<clipPath id="SVGID_46_">
			<use xlink:href="#SVGID_45_"  overflow="visible"/>
		</clipPath>
		<path clip-path="url(#SVGID_46_)" d="M1269.195,697.134c-12.488,0-21.439,9.763-21.439,21.148
			c0,11.554,8.682,21.498,21.584,21.498c11.684,0,21.252-8.928,21.252-21.249C1290.592,704.406,1279.461,697.134,1269.195,697.134
			 M1269.318,705.509c6.141,0,11.961,4.965,11.961,12.965c0,7.831-5.793,12.938-11.988,12.938c-6.807,0-12.176-5.451-12.176-12.999
			C1257.115,711.025,1262.418,705.509,1269.318,705.509"/>
	</g>
	<g>
		<defs>
			<rect id="SVGID_47_" x="-12" y="-9.229" width="1542.139" height="410.208"/>
		</defs>
		<clipPath id="SVGID_48_">
			<use xlink:href="#SVGID_47_"  overflow="visible"/>
		</clipPath>
		<path clip-path="url(#SVGID_48_)" d="M1315.555,697.134c-12.488,0-21.438,9.763-21.438,21.148
			c0,11.554,8.682,21.498,21.586,21.498c11.682,0,21.252-8.928,21.252-21.249C1336.953,704.406,1325.82,697.134,1315.555,697.134
			 M1315.68,705.509c6.141,0,11.961,4.965,11.961,12.965c0,7.831-5.795,12.938-11.988,12.938c-6.807,0-12.176-5.451-12.176-12.999
			C1303.477,711.025,1308.777,705.509,1315.68,705.509"/>
	</g>
	<g>
		<defs>
			<rect id="SVGID_49_" x="-12" y="-9.229" width="1542.139" height="410.208"/>
		</defs>
		<clipPath id="SVGID_50_">
			<use xlink:href="#SVGID_49_"  overflow="visible"/>
		</clipPath>
		<path clip-path="url(#SVGID_50_)" d="M1361.285,697.155c-11.463,0-20.473,10.038-20.473,21.308
			c0,12.834,10.445,21.347,20.275,21.347c6.078,0,9.309-2.411,11.693-5.181v4.205c0,7.357-4.467,11.763-11.209,11.763
			c-6.512,0-9.779-4.843-10.916-7.591l-8.195,3.426c2.908,6.148,8.762,12.559,19.18,12.559c11.396,0,20.086-7.178,20.086-22.233
			v-38.846h-8.943v4.141C1370.035,699.088,1366.273,697.156,1361.285,697.155L1361.285,697.155z M1362.115,705.514
			c5.619,0,11.391,4.8,11.391,12.994c0,8.329-5.758,12.92-11.516,12.92c-6.107,0-11.797-4.962-11.797-12.841
			C1350.193,710.4,1356.1,705.514,1362.115,705.514z"/>
	</g>
	<g>
		<defs>
			<rect id="SVGID_51_" x="-12" y="-9.229" width="1542.139" height="410.208"/>
		</defs>
		<clipPath id="SVGID_52_">
			<use xlink:href="#SVGID_51_"  overflow="visible"/>
		</clipPath>
		<path clip-path="url(#SVGID_52_)" d="M1420.688,697.104c-10.813,0-19.891,8.603-19.891,21.297
			c0,13.433,10.119,21.397,20.928,21.397c9.023,0,14.561-4.938,17.865-9.358l-7.373-4.905c-1.912,2.969-5.109,5.871-10.447,5.871
			c-5.994,0-8.75-3.283-10.457-6.463l28.592-11.864l-1.484-3.478C1435.658,702.792,1429.215,697.104,1420.688,697.104
			L1420.688,697.104z M1421.059,705.305c3.896,0,6.701,2.071,7.893,4.556l-19.096,7.981
			C1409.031,711.662,1414.887,705.305,1421.059,705.305"/>
	</g>
	<g>
		<defs>
			<rect id="SVGID_53_" x="-12" y="-9.229" width="1542.139" height="410.208"/>
		</defs>
		<clipPath id="SVGID_54_">
			<use xlink:href="#SVGID_53_"  overflow="visible"/>
		</clipPath>
		<rect x="1387.691" y="675.678" clip-path="url(#SVGID_54_)" width="8.758" height="62.854"/>
	</g>
</g>
</svg>
