<?xml version="1.0" encoding="utf-8"?>
<!-- This image is (c) Copyright-2017, REX DZINES. Visit www.rexdzines.com  -->
<!DOCTYPE svg PUBLIC "-//W3C//DTD SVG 1.1//EN" "http://www.w3.org/Graphics/SVG/1.1/DTD/svg11.dtd">
<svg version="1.1" xmlns="http://www.w3.org/2000/svg" xmlns:xlink="http://www.w3.org/1999/xlink" x="0px" y="0px" width="400px"
	 height="400px" viewBox="0 0 400 400" enable-background="new 0 0 400 400" xml:space="preserve">
<g id="Layer_1">
	<g>
		<path fill-rule="evenodd" clip-rule="evenodd" fill="#264DE4" d="M34.902,12.622h329.195l-29.84,336.381l-134.95,37.375
			L64.735,349.013L34.902,12.622z"/>
		<path fill-rule="evenodd" clip-rule="evenodd" fill="#2965F1" d="M199.477,39.945h134.789L308.731,327.45l-109.273,30.188
			L199.477,39.945z"/>
	</g>
</g>
<g id="Layer_3">
	<g>
		<path fill-rule="evenodd" clip-rule="evenodd" fill="#FFFFFF" d="M199.475,74.618H305.07L285.943,289.86l-86.521,24.216v-44.512
			l46.774-12.44l4.806-54.45l-51.559-0.041V159.94l55.516,0.042l3.941-42.797h-59.386L199.475,74.618z"/>
	</g>
</g>
<g id="Layer_4">
	<g>
		<path fill-rule="evenodd" clip-rule="evenodd" fill="#EBEBEB" d="M199.39,74.621v42.303H97.517L93.464,74.62L199.39,74.621z"/>
		<path fill-rule="evenodd" clip-rule="evenodd" fill="#EBEBEB" d="M199.417,269.599v44.485l-86.458-24.267l-5.88-66.587h42.307
			l2.945,33.834L199.417,269.599z"/>
		<path fill-rule="evenodd" clip-rule="evenodd" fill="#EBEBEB" d="M199.39,159.979v42.648h-94.496l-4.054-42.648H199.39z"/>
	</g>
</g>
</svg>
