<?xml version="1.0" encoding="utf-8"?>
<!-- Generator: Adobe Illustrator 16.0.0, SVG Export Plug-In . SVG Version: 6.00 Build 0)  -->
<!DOCTYPE svg PUBLIC "-//W3C//DTD SVG 1.1//EN" "http://www.w3.org/Graphics/SVG/1.1/DTD/svg11.dtd">
<svg version="1.1" xmlns="http://www.w3.org/2000/svg" xmlns:xlink="http://www.w3.org/1999/xlink" x="0px" y="0px" width="400px"
	 height="400px" viewBox="0 0 400 400" enable-background="new 0 0 400 400" xml:space="preserve">
<g id="BG" display="none">
	<rect display="inline" fill="#F7F7F7" width="400" height="400"/>
</g>
<g id="Layer_1">
	<g>
		<polygon fill="#E44F26" points="130.678,300.773 115.252,127.763 284.747,127.763 269.306,300.745 199.896,319.988 		"/>
		<polygon fill="#F1662A" points="200,305.28 256.086,289.731 269.281,141.909 200,141.909 		"/>
		<polygon fill="#EBEBEB" points="200,206.077 171.922,206.077 169.981,184.349 200,184.349 200,163.128 199.927,163.128 
			146.793,163.128 147.301,168.821 152.516,227.295 200,227.295 		"/>
		<polygon fill="#EBEBEB" points="200,261.184 199.907,261.21 176.275,254.828 174.764,237.905 163.281,237.905 153.464,237.905 
			156.437,271.222 199.902,283.288 200,283.261 		"/>
		<path fill="#010101" d="M131.022,80.746h10.783v10.653h9.864V80.746h10.784v32.263h-10.783v-10.803h-9.864v10.803h-10.784V80.746
			L131.022,80.746z"/>
		<path fill="#010101" d="M176.633,91.444h-9.492V80.746h29.774v10.698h-9.497v21.564h-10.783V91.444H176.633z"/>
		<path fill="#010101" d="M201.641,80.746h11.244l6.916,11.337l6.91-11.337h11.248v32.263H227.22V97.018l-7.419,11.471h-0.186
			l-7.424-11.471v15.991H201.64L201.641,80.746L201.641,80.746z"/>
		<path fill="#010101" d="M243.325,80.746h10.786v21.599h15.164v10.663h-25.951L243.325,80.746L243.325,80.746z"/>
		<polygon fill="#FFFFFF" points="199.927,206.077 199.927,227.295 226.055,227.295 223.592,254.813 199.927,261.202 
			199.927,283.278 243.427,271.222 243.745,267.638 248.731,211.774 249.249,206.077 243.531,206.077 		"/>
		<polygon fill="#FFFFFF" points="199.927,163.128 199.927,176.308 199.927,184.296 199.927,184.349 251.111,184.349 
			251.111,184.349 251.18,184.349 251.605,179.579 252.572,168.821 253.08,163.128 		"/>
	</g>
</g>
</svg>
