<?xml version="1.0" encoding="utf-8"?>
<!-- This image is (c) Copyright-2017, REX DZINES. Visit www.rexdzines.com  -->
<!DOCTYPE svg PUBLIC "-//W3C//DTD SVG 1.1//EN" "http://www.w3.org/Graphics/SVG/1.1/DTD/svg11.dtd">
<svg version="1.1" xmlns="http://www.w3.org/2000/svg" xmlns:xlink="http://www.w3.org/1999/xlink" x="0px" y="0px" width="400px"
	 height="400px" viewBox="0 0 400 400" enable-background="new 0 0 400 400" xml:space="preserve">
<g id="Layer_1">
	<g>
		<path fill-rule="evenodd" clip-rule="evenodd" fill="#E44D26" d="M34.902,12.622h329.195l-29.84,336.381l-134.95,37.375
			L64.735,349.013L34.902,12.622z"/>
		<path fill-rule="evenodd" clip-rule="evenodd" fill="#F16529" d="M199.477,39.945h134.789L308.731,327.45l-109.273,30.188
			L199.477,39.945z"/>
	</g>
</g>
<g id="Layer_2">
	<g>
		<path fill-rule="evenodd" clip-rule="evenodd" fill="#FFFFFF" d="M199.468,74.857h105.623l-3.67,42.334h-101.95L199.468,74.857z"
			/>
		<path fill-rule="evenodd" clip-rule="evenodd" fill="#FFFFFF" d="M199.48,160.232v42.322h51.896l-4.797,54.809l-47.094,12.545
			v44.168l86.479-23.918l11.764-129.905L199.48,160.232z"/>
	</g>
</g>
<g id="Layer_3">
	<g>
		<path fill-rule="evenodd" clip-rule="evenodd" fill="#EBEBEB" d="M199.461,74.86v42.334h-59.59l3.685,43.042h55.917v42.343
			h-94.558L93.492,74.862L199.461,74.86z"/>
		<path fill-rule="evenodd" clip-rule="evenodd" fill="#EBEBEB" d="M199.461,269.927v44.17l-86.831-23.949l-5.529-66.226h42.332
			l2.947,33.473L199.461,269.927z"/>
	</g>
</g>
</svg>
