<?xml version="1.0" encoding="utf-8"?>
<!-- Generator: Adobe Illustrator 16.0.4, SVG Export Plug-In . SVG Version: 6.00 Build 0)  -->
<!DOCTYPE svg PUBLIC "-//W3C//DTD SVG 1.1//EN" "http://www.w3.org/Graphics/SVG/1.1/DTD/svg11.dtd">
<svg version="1.1" id="Layer_1" xmlns="http://www.w3.org/2000/svg" xmlns:xlink="http://www.w3.org/1999/xlink" x="0px" y="0px"
	 width="400px" height="400px" viewBox="0 0 400 400" enable-background="new 0 0 400 400" xml:space="preserve">
<g>
	
		<linearGradient id="path1948_1_" gradientUnits="userSpaceOnUse" x1="228.9736" y1="-63.5293" x2="561.1273" y2="-349.3029" gradientTransform="matrix(0.5625 0 0 -0.568 -106.4624 2.4512)">
		<stop  offset="0" style="stop-color:#5CA0D5"/>
		<stop  offset="1" style="stop-color:#316A99"/>
	</linearGradient>
	<path id="path1948" fill="url(#path1948_1_)" d="M197.983,28.789c-13.966,0.065-27.302,1.255-39.037,3.332
		c-34.57,6.109-40.847,18.891-40.847,42.465v31.135h81.691v10.378H118.1H87.441c-23.742,0-44.531,14.27-51.033,41.417
		c-7.501,31.117-7.835,50.534,0,83.025c5.806,24.188,19.674,41.418,43.417,41.418h28.088v-37.323
		c0-26.964,23.33-50.749,51.034-50.749h81.596c22.714,0,40.847-18.7,40.847-41.512V74.586c0-22.137-18.674-38.77-40.847-42.465
		C226.511,29.785,211.95,28.723,197.983,28.789z M153.805,53.83c8.438,0,15.329,7.004,15.329,15.615
		c0,8.581-6.891,15.52-15.329,15.52c-8.469,0-15.33-6.939-15.33-15.52C138.476,60.833,145.336,53.83,153.805,53.83z"/>
	
		<linearGradient id="path1950_1_" gradientUnits="userSpaceOnUse" x1="689.541" y1="-522.2676" x2="570.9296" y2="-354.4529" gradientTransform="matrix(0.5625 0 0 -0.568 -106.4624 2.4512)">
		<stop  offset="0" style="stop-color:#FFD53E"/>
		<stop  offset="1" style="stop-color:#FFE875"/>
	</linearGradient>
	<path id="path1950" fill="url(#path1950_1_)" d="M291.577,116.099v36.275c0,28.126-23.845,51.796-51.034,51.796h-81.596
		c-22.352,0-40.847,19.128-40.847,41.512v77.789c0,22.14,19.251,35.163,40.847,41.513c25.859,7.604,50.657,8.98,81.596,0
		c20.566-5.953,40.847-17.938,40.847-41.513v-31.134h-81.598v-10.379h81.598h40.847c23.743,0,32.591-16.562,40.845-41.418
		c8.531-25.588,8.168-50.197,0-83.025c-5.867-23.633-17.072-41.417-40.845-41.417H291.577z M245.684,313.094
		c8.469,0,15.33,6.938,15.33,15.52c0,8.61-6.861,15.614-15.33,15.614c-8.438,0-15.329-7.004-15.329-15.614
		C230.354,320.032,237.246,313.094,245.684,313.094z"/>
</g>
</svg>
