<?xml version="1.0" encoding="utf-8"?>
<!-- Generator: Adobe Illustrator 16.0.0, SVG Export Plug-In . SVG Version: 6.00 Build 0)  -->
<!DOCTYPE svg PUBLIC "-//W3C//DTD SVG 1.1//EN" "http://www.w3.org/Graphics/SVG/1.1/DTD/svg11.dtd">
<svg version="1.1" xmlns="http://www.w3.org/2000/svg" xmlns:xlink="http://www.w3.org/1999/xlink" x="0px" y="0px" width="400px"
	 height="400px" viewBox="0 0 400 400" enable-background="new 0 0 400 400" xml:space="preserve">
<g id="BG" display="none">
	<rect display="inline" fill="#F7F7F7" width="400" height="400"/>
</g>
<g id="Layer_1">
	<path fill="#CF649A" d="M303.908,216.021c-10.068,0.057-18.786,2.476-26.099,6.075c-2.699-5.344-5.399-10.013-5.849-13.5
		c-0.506-4.049-1.125-6.524-0.506-11.361c0.618-4.837,3.431-11.699,3.431-12.262c-0.057-0.506-0.619-2.98-6.413-3.037
		c-5.793-0.057-10.799,1.125-11.361,2.644s-1.688,5.006-2.418,8.606c-1.013,5.285-11.587,24.017-17.604,33.859
		c-1.969-3.824-3.656-7.199-3.995-9.899c-0.505-4.05-1.125-6.524-0.505-11.362c0.618-4.837,3.431-11.698,3.431-12.261
		c-0.056-0.507-0.618-2.981-6.412-3.038c-5.793-0.056-10.8,1.125-11.362,2.645c-0.563,1.519-1.181,5.117-2.418,8.605
		c-1.182,3.486-15.243,34.76-18.899,42.915c-1.855,4.163-3.486,7.481-4.668,9.731s-0.057,0.168-0.169,0.394
		c-1.013,1.913-1.575,2.98-1.575,2.98v0.058c-0.786,1.405-1.63,2.755-2.025,2.755c-0.281,0-0.844-3.769,0.114-8.942
		c2.08-10.855,7.143-27.785,7.087-28.404c0-0.281,0.955-3.263-3.264-4.781c-4.104-1.519-5.566,1.013-5.905,1.013
		c-0.338,0-0.619,0.899-0.619,0.899s4.556-19.067-8.718-19.067c-8.324,0-19.798,9.056-25.479,17.324
		c-3.601,1.969-11.25,6.13-19.35,10.573c-3.094,1.688-6.3,3.488-9.336,5.119l-0.62-0.675c-16.085-17.155-45.84-29.305-44.603-52.365
		c0.45-8.382,3.375-30.485,57.146-57.259c44.041-21.937,79.308-15.917,85.438-2.531c8.719,19.124-18.842,54.672-64.627,59.79
		c-17.436,1.968-26.604-4.781-28.91-7.313c-2.418-2.643-2.757-2.756-3.656-2.249c-1.463,0.787-0.563,3.148,0,4.555
		c1.35,3.544,6.975,9.844,16.536,12.994c8.381,2.756,28.854,4.274,53.603-5.287c27.729-10.743,49.385-40.555,43.028-65.471
		c-6.468-25.367-48.54-33.692-88.306-19.575c-23.681,8.438-49.328,21.6-67.777,38.867c-21.936,20.474-25.423,38.36-23.961,45.784
		c5.119,26.492,41.622,43.76,56.246,56.527c-0.731,0.395-1.405,0.788-2.024,1.125c-7.312,3.601-35.153,18.168-42.129,33.578
		c-7.875,17.438,1.237,29.98,7.313,31.668c18.786,5.23,38.022-4.162,48.429-19.63c10.349-15.468,9.111-35.548,4.33-44.717
		l-0.169-0.337l5.737-3.375c3.713-2.193,7.368-4.218,10.574-5.962c-1.8,4.894-3.094,10.688-3.769,19.124
		c-0.786,9.899,3.263,22.725,8.606,27.785c2.361,2.193,5.174,2.25,6.917,2.25c6.188,0,9-5.119,12.094-11.248
		c3.824-7.481,7.199-16.144,7.199-16.144s-4.219,23.454,7.313,23.454c4.219,0,8.437-5.456,10.349-8.268v0.056
		c0,0,0.113-0.168,0.338-0.563c0.449-0.674,0.675-1.067,0.675-1.067v-0.113c1.688-2.925,5.456-9.617,11.08-20.698
		c7.256-14.287,14.23-32.173,14.23-32.173s0.676,4.387,2.757,11.586c1.236,4.275,3.938,8.943,6.018,13.5
		c-1.688,2.362-2.699,3.713-2.699,3.713l0.057,0.056c-1.351,1.799-2.869,3.712-4.444,5.624
		c-5.737,6.862-12.599,14.681-13.499,16.931c-1.068,2.643-0.844,4.611,1.237,6.187c1.52,1.125,4.219,1.35,7.087,1.125
		c5.175-0.337,8.775-1.632,10.574-2.419c2.813-1.012,6.019-2.531,9.111-4.781c5.625-4.161,9.057-10.067,8.719-17.942
		c-0.168-4.331-1.574-8.605-3.318-12.654c0.506-0.731,1.013-1.463,1.519-2.25c8.888-12.993,15.749-27.279,15.749-27.279
		s0.675,4.387,2.756,11.586c1.068,3.656,3.206,7.65,5.119,11.587c-8.325,6.806-13.556,14.68-15.355,19.854
		c-3.318,9.563-0.731,13.894,4.162,14.906c2.193,0.449,5.344-0.563,7.705-1.575c2.926-0.956,6.468-2.588,9.731-5.006
		c5.625-4.163,11.024-9.956,10.743-17.774c-0.17-3.6-1.125-7.143-2.419-10.518c7.087-2.925,16.255-4.612,27.897-3.206
		c25.03,2.925,29.979,18.561,29.023,25.085c-0.956,6.525-6.188,10.125-7.931,11.25c-1.743,1.068-2.306,1.463-2.137,2.249
		c0.226,1.183,1.012,1.125,2.53,0.901c2.082-0.339,13.162-5.344,13.612-17.381C344.631,232.727,329.95,215.853,303.908,216.021
		L303.908,216.021z M110.872,281.099c-8.269,9.057-19.911,12.487-24.861,9.561c-5.343-3.092-3.263-16.424,6.918-26.041
		c6.188-5.85,14.231-11.249,19.519-14.568c1.181-0.73,2.98-1.799,5.117-3.094c0.338-0.224,0.563-0.337,0.563-0.337
		c0.395-0.226,0.844-0.507,1.294-0.788C123.189,259.557,119.59,271.593,110.872,281.099z M171.336,239.983
		c-2.868,7.03-8.942,25.085-12.599,24.072c-3.151-0.844-5.062-14.512-0.62-28.01c2.25-6.807,7.031-14.905,9.844-18.056
		c4.557-5.063,9.506-6.75,10.744-4.668C180.167,216.021,173.136,235.596,171.336,239.983z M221.227,263.831
		c-1.238,0.619-2.362,1.068-2.868,0.731c-0.395-0.226,0.506-1.069,0.506-1.069s6.243-6.693,8.718-9.787
		c1.406-1.799,3.094-3.881,4.894-6.243v0.675C232.476,256.237,224.714,261.638,221.227,263.831z M259.699,255.057
		c-0.9-0.675-0.788-2.757,2.25-9.281c1.181-2.587,3.881-6.917,8.548-11.023c0.563,1.688,0.901,3.318,0.844,4.836
		C271.285,249.713,264.086,253.481,259.699,255.057z"/>
</g>
</svg>
